<?xml version="1.0" ?><svg id="Layer_1" style="enable-background:new 0 0 512 512;" version="1.1" viewBox="0 0 512 512" xml:space="preserve" xmlns="http://www.w3.org/2000/svg" xmlns:xlink="http://www.w3.org/1999/xlink"><style type="text/css">
	.st0{fill:#D90429;}
</style><g><g><path d="M223.3,424.6c-38.1,0-73.9-14.8-100.8-41.8C95.6,355.9,80.7,320.1,80.7,282s14.8-73.9,41.8-100.8    c26.9-26.9,62.7-41.8,100.8-41.8c10.1,0,20.2,1.1,29.9,3.2c5.3,1.1,8.6,6.3,7.5,11.6c-1.1,5.3-6.3,8.6-11.6,7.5    c-8.4-1.8-17.1-2.7-25.9-2.7c-67.8,0-123,55.2-123,123s55.2,123,123,123s123-55.2,123-123c0-5.7-0.4-11.4-1.2-17    c-0.7-5.3,3-10.3,8.3-11c5.3-0.7,10.3,3,11,8.3c0.9,6.5,1.3,13.1,1.3,19.6c0,38.1-14.8,73.9-41.8,100.8    C297.2,409.7,261.4,424.6,223.3,424.6z"/></g><g><path d="M223.3,370.5c-48.8,0-88.5-39.7-88.5-88.5s39.7-88.5,88.5-88.5c5.1,0,10.2,0.4,15.3,1.3c5.3,0.9,8.9,6,7.9,11.3    c-0.9,5.3-6,8.9-11.3,7.9c-3.9-0.7-7.9-1-11.9-1c-38,0-69,30.9-69,69s30.9,69,69,69s69-30.9,69-69c0-3-0.2-6-0.6-8.9    c-0.7-5.3,3.1-10.2,8.4-10.9c5.4-0.7,10.2,3.1,10.9,8.4c0.5,3.8,0.7,7.6,0.7,11.4C311.8,330.8,272.1,370.5,223.3,370.5z"/></g><g><circle cx="223.3" cy="282" r="23.9"/></g><g><path class="st0" d="M223.3,291.8c-2.6,0-5.3-1.1-7.2-3.2c-3.6-4-3.4-10.2,0.6-13.8l168.6-154c4-3.6,10.2-3.4,13.8,0.6    c3.6,4,3.4,10.2-0.6,13.8l-168.6,154C228,290.9,225.7,291.8,223.3,291.8z"/></g><g><path class="st0" d="M336.6,187.7c-4.7,0-8.8-3.4-9.6-8.2l-6.2-36.6c-0.4-2.6,0.2-5.2,1.7-7.3l31.5-44.1c2.2-3.1,6-4.6,9.8-3.9    c3.7,0.7,6.7,3.6,7.6,7.3l11.6,47.6c1.3,5.2-1.9,10.5-7.2,11.8c-5.2,1.3-10.5-1.9-11.8-7.2l-6.5-26.9l-16.8,23.5l5.5,32.6    c0.9,5.3-2.7,10.4-8,11.2C337.7,187.7,337.2,187.7,336.6,187.7z"/></g><g><path class="st0" d="M377.4,197.6c-0.5,0-1.1,0-1.6-0.1l-36.6-6.2c-5.3-0.9-8.9-5.9-8-11.2c0.9-5.3,5.9-8.9,11.2-8l32.6,5.5    l23.5-16.8l-26.9-6.5c-5.2-1.3-8.5-6.6-7.2-11.8c1.3-5.2,6.6-8.5,11.8-7.2l47.6,11.6c3.7,0.9,6.6,3.9,7.3,7.6s-0.8,7.6-3.9,9.8    l-44.1,31.5C381.4,197,379.4,197.6,377.4,197.6z"/></g></g></svg>