<?xml version="1.0" ?><svg xmlns="http://www.w3.org/2000/svg" xmlns:xlink="http://www.w3.org/1999/xlink" version="1.1" id="Layer_1" viewBox="0 0 100 100" style="enable-background:new 0 0 100 100;" xml:space="preserve"><style type="text/css">
	.st0{fill:#D5FFA2;}
	.st1{fill:#333333;}
</style><g><path class="st0" d="M37.7,36.1L37.7,36.1c9.1,0,16.4,7.3,16.4,16.4l0,0c0,9.1-7.3,16.4-16.4,16.4l0,0c-9.1,0-16.4-7.3-16.4-16.4   l0,0C21.3,43.4,28.6,36.1,37.7,36.1z"/><g><path class="st1" d="M73.1,22.2c-4.8-0.2-18.1-1.3-22-4.1c-0.6-0.4-1.3-0.4-1.9,0c-3.9,2.7-17.2,3.9-22,4.1    c-0.9,0-1.6,0.8-1.6,1.6v27c0,21.8,23.7,31.2,23.9,31.3c0.2,0.1,0.4,0.1,0.6,0.1c0.2,0,0.4,0,0.6-0.1C51,82,74.7,72.6,74.7,50.8    v-27C74.7,22.9,74,22.2,73.1,22.2z M71.4,50.8c0,17.7-17.8,26.4-21.2,28c-3.5-1.5-21.2-10.2-21.2-28V25.3c4.4-0.3,16-1.2,21.2-4    c5.2,2.8,16.8,3.7,21.2,4V50.8z"/><path class="st1" d="M49.6,26.1c-2.9,1.1-7,1.9-12.1,2.6c-1,0.1-2,0.2-3,0.3c-0.8,0.1-1.5,0.8-1.5,1.6v20.2    c0,3.8,0.9,7.2,2.7,10.5c1.5,2.7,3.7,5.3,6.4,7.6c2.7,2.3,5.5,4,7.3,5c0.2,0.1,0.5,0.2,0.8,0.2s0.5-0.1,0.8-0.2    c1.7-0.9,4.3-2.5,7-4.7c6.2-5.3,9.4-11.4,9.4-18.3V30.6c0-0.8-0.6-1.5-1.5-1.6c-1-0.1-2-0.2-3-0.3c-5.1-0.6-9.2-1.5-12.1-2.6    C50.4,26,50,26,49.6,26.1z M62.4,31.9c0.5,0.1,1.1,0.1,1.6,0.2v18.7c0,5.9-2.8,11.2-8.2,15.8c-2,1.7-4.1,3-5.6,3.9    c-1.6-0.9-3.8-2.3-5.9-4.1c-2.4-2.1-4.3-4.4-5.6-6.7c-1.5-2.8-2.3-5.7-2.3-8.9V32.1c0.5-0.1,1.1-0.1,1.6-0.2    c5.1-0.6,9.1-1.5,12.3-2.6C53.3,30.4,57.3,31.3,62.4,31.9z"/><path class="st1" d="M44.7,46.8c0,2.4,1.6,4.5,3.8,5.2v2.3c0,0.9,0.7,1.6,1.6,1.6c0.9,0,1.6-0.7,1.6-1.6v-2.3    c2.2-0.7,3.8-2.8,3.8-5.2c0-3-2.5-5.5-5.5-5.5C47.2,41.3,44.7,43.7,44.7,46.8z M52.4,46.8c0,1.2-1,2.2-2.2,2.2    C49,49,48,48,48,46.8c0-1.2,1-2.2,2.2-2.2C51.4,44.6,52.4,45.5,52.4,46.8z"/></g></g></svg>